<svg width="42" height="51" viewBox="0 0 42 51" fill="none" xmlns="http://www.w3.org/2000/svg">
<g filter="url(#filter0_d)">
<path d="M10.69 16.2085C10.5366 16.0522 10.3237 15.9623 10.1066 15.9623C9.88954 15.9623 9.6767 16.0522 9.5232 16.2085C9.36971 16.3654 9.28137 16.5813 9.28137 16.803C9.28137 17.0239 9.36957 17.2397 9.5232 17.3967C9.6767 17.553 9.88954 17.6428 10.1066 17.6428C10.3237 17.6428 10.5366 17.553 10.69 17.3967C10.8435 17.2406 10.9319 17.0239 10.9319 16.803C10.9319 16.5813 10.8436 16.3646 10.69 16.2085Z" fill="white"/>
<path d="M30.0675 27.0823C31.6261 26.3892 32.7184 24.806 32.7184 22.9674V11.9258C32.7184 5.34988 27.4616 0 21 0C14.5384 0 9.28155 5.34988 9.28155 11.9258V13.1855C9.28155 13.6493 9.65106 14.0254 10.1068 14.0254C10.5625 14.0254 10.932 13.6493 10.932 13.1855V11.9258C10.932 6.27606 15.4485 1.67969 21 1.67969C26.5515 1.67969 31.068 6.27606 31.068 11.9258V22.9674C31.068 24.5163 29.8298 25.7765 28.3078 25.7765H24.9221C24.9472 25.5934 24.9612 25.4068 24.9612 25.2168V22.9938C24.9612 22.9809 24.9598 22.9684 24.9593 22.9556C27.3264 21.5598 28.9223 18.9533 28.9223 15.9743V13.0952C28.9223 11.1503 27.3675 9.5679 25.4563 9.5679H16.5437C14.6325 9.5679 13.0777 11.1503 13.0777 13.0952V15.9743C13.0777 18.9533 14.6735 21.5598 17.0407 22.9556C17.0402 22.9683 17.0388 22.9809 17.0388 22.9938V25.2168C17.0388 25.4068 17.0528 25.5934 17.0779 25.7765H13.6922C12.1702 25.7765 10.932 24.5164 10.932 22.9674V20.1562C10.932 19.6925 10.5625 19.3164 10.1068 19.3164C9.65106 19.3164 9.28155 19.6925 9.28155 20.1562V22.9674C9.28155 24.8061 10.3739 26.3893 11.9325 27.0823C7.25152 29.3085 4 34.1454 4 39.7413V42.1602C4 42.624 4.36954 43 4.82524 43H37.1748C37.6305 43 38 42.624 38 42.1602V39.7413C38 34.1454 34.7485 29.3085 30.0675 27.0823ZM14.7282 15.9743V13.0952C14.7282 12.0765 15.5426 11.2476 16.5437 11.2476H25.4563C26.4574 11.2476 27.2718 12.0765 27.2718 13.0952V15.9743C27.2718 19.4938 24.4583 22.3571 21 22.3571C17.5417 22.3571 14.7282 19.4938 14.7282 15.9743ZM23.3107 23.6867V25.2168C23.3107 26.5135 22.2741 27.5684 21 27.5684C19.7259 27.5684 18.6893 26.5135 18.6893 25.2168V23.6867C19.4206 23.914 20.1965 24.0368 21 24.0368C21.8035 24.0368 22.5794 23.914 23.3107 23.6867ZM17.7082 27.4563C18.4196 28.5359 19.6295 29.2481 21 29.2481C22.3705 29.2481 23.5804 28.5359 24.2918 27.4563C25.0899 27.4572 25.8699 27.538 26.6249 27.69L21 37.6051L15.3751 27.6901C16.1301 27.5379 16.9101 27.4572 17.7082 27.4563ZM36.3495 41.3203H33.0231V38.3809C33.0231 37.9171 32.6535 37.541 32.1979 37.541C31.7421 37.541 31.3726 37.9171 31.3726 38.3809V41.3203H10.6274V35.9082C10.6274 35.4444 10.2578 35.0684 9.80212 35.0684C9.34638 35.0684 8.97687 35.4444 8.97687 35.9082V41.3203H5.65049V39.7413C5.65049 34.3909 9.02916 29.8292 13.729 28.1478L20.2853 39.7046C20.4327 39.9645 20.7052 40.1245 21 40.1245C21.2948 40.1245 21.5673 39.9645 21.7147 39.7046L28.271 28.1478C32.9708 29.8292 36.3495 34.3909 36.3495 39.7413V41.3203Z" fill="white"/>
<path d="M18.6014 15.1784C18.448 15.0221 18.2351 14.9323 18.0181 14.9323C17.8011 14.9323 17.5889 15.0221 17.4347 15.1784C17.2812 15.3346 17.1937 15.5504 17.1937 15.7721C17.1937 15.993 17.2812 16.2097 17.4347 16.3659C17.5889 16.522 17.8011 16.6119 18.0181 16.6119C18.2359 16.6119 18.448 16.5221 18.6014 16.3659C18.7558 16.2097 18.844 15.993 18.844 15.7721C18.844 15.5512 18.7558 15.3346 18.6014 15.1784Z" fill="white"/>
<path d="M24.5851 15.1784C24.4316 15.0222 24.2187 14.9323 24.0017 14.9323C23.7846 14.9323 23.5717 15.0221 23.4182 15.1784C23.2648 15.3346 23.1765 15.5512 23.1765 15.7721C23.1765 15.993 23.2647 16.2097 23.4182 16.3659C23.5717 16.522 23.7846 16.6119 24.0017 16.6119C24.2187 16.6119 24.4316 16.5221 24.5851 16.3659C24.7386 16.2097 24.827 15.993 24.827 15.7721C24.827 15.5512 24.7386 15.3346 24.5851 15.1784Z" fill="white"/>
<path d="M22.2172 18.2881C21.8948 17.9602 21.3724 17.9602 21.05 18.2881C20.966 18.3736 20.8293 18.3736 20.7453 18.2881C20.4229 17.9601 19.9003 17.9601 19.5782 18.2882C19.2559 18.6162 19.256 19.1479 19.5782 19.4759C19.942 19.8461 20.4198 20.0311 20.8976 20.0311C21.3755 20.0311 21.8533 19.846 22.217 19.4759C22.5394 19.1479 22.5394 18.6161 22.2172 18.2881Z" fill="white"/>
<path d="M32.7805 34.4751C32.6271 34.3188 32.4151 34.2289 32.1971 34.2289C31.9801 34.2289 31.7672 34.3188 31.6137 34.4751C31.4602 34.6312 31.3718 34.8471 31.3718 35.0687C31.3718 35.2896 31.4602 35.5063 31.6137 35.6625C31.7681 35.8187 31.9801 35.9086 32.1971 35.9086C32.4141 35.9086 32.6271 35.8188 32.7805 35.6625C32.934 35.5062 33.0223 35.2896 33.0223 35.0687C33.0223 34.8479 32.9341 34.6312 32.7805 34.4751Z" fill="white"/>
</g>
<defs>
<filter id="filter0_d" x="0" y="0" width="42" height="51" filterUnits="userSpaceOnUse" color-interpolation-filters="sRGB">
<feFlood flood-opacity="0" result="BackgroundImageFix"/>
<feColorMatrix in="SourceAlpha" type="matrix" values="0 0 0 0 0 0 0 0 0 0 0 0 0 0 0 0 0 0 127 0"/>
<feOffset dy="4"/>
<feGaussianBlur stdDeviation="2"/>
<feColorMatrix type="matrix" values="0 0 0 0 0 0 0 0 0 0 0 0 0 0 0 0 0 0 0.25 0"/>
<feBlend mode="normal" in2="BackgroundImageFix" result="effect1_dropShadow"/>
<feBlend mode="normal" in="SourceGraphic" in2="effect1_dropShadow" result="shape"/>
</filter>
</defs>
</svg>
