<svg width="53" height="53" viewBox="0 0 53 53" fill="none" xmlns="http://www.w3.org/2000/svg">
<g filter="url(#filter0_d)">
<path d="M42.41 6.59013C38.1602 2.34035 32.51 0 26.5 0C20.49 0 14.8398 2.34035 10.59 6.59013C6.34044 10.8398 4 16.49 4 22.5C4 28.51 6.34044 34.1602 10.59 38.4099C14.8398 42.6596 20.49 45 26.5 45C32.51 45 38.1602 42.6596 42.41 38.4099C46.6596 34.1602 49 28.51 49 22.5C49 16.49 46.6596 10.8398 42.41 6.59013ZM26.5 43.2422C15.0627 43.2422 5.75781 33.9373 5.75781 22.5C5.75781 11.0627 15.0627 1.75781 26.5 1.75781C37.9373 1.75781 47.2422 11.0627 47.2422 22.5C47.2422 33.9373 37.9373 43.2422 26.5 43.2422Z" fill="white"/>
<path d="M45.1412 18.8927C43.9565 12.7364 39.8056 7.56967 34.0372 5.07163C33.5919 4.87871 33.0744 5.08349 32.8815 5.52884C32.6886 5.97427 32.8933 6.49177 33.3387 6.6846C38.5734 8.95159 42.3403 13.6395 43.4151 19.2248C43.496 19.6454 43.8643 19.9378 44.2772 19.9378C44.3323 19.9378 44.3882 19.9326 44.4442 19.9218C44.9208 19.8301 45.2329 19.3693 45.1412 18.8927Z" fill="white"/>
<path d="M30.5809 3.9551L30.5579 3.9501C30.0836 3.84779 29.6158 4.14961 29.5137 4.62421C29.4114 5.09874 29.7133 5.56622 30.1878 5.66844L30.1981 5.67073C30.2626 5.68514 30.3269 5.692 30.3904 5.692C30.7929 5.692 31.1561 5.41356 31.2473 5.00434C31.353 4.53053 31.0546 4.06084 30.5809 3.9551Z" fill="white"/>
<path d="M19.8596 38.4004C14.5171 36.1663 10.676 31.4467 9.58462 25.7756C9.49295 25.2989 9.03276 24.9864 8.55551 25.0786C8.07879 25.1703 7.76678 25.6311 7.85845 26.1077C8.45004 29.1814 9.8156 32.0915 11.8078 34.5232C13.777 36.9268 16.3268 38.8283 19.1815 40.022C19.2922 40.0684 19.4072 40.0904 19.5202 40.0904C19.864 40.0904 20.1904 39.8873 20.3313 39.5502C20.5187 39.1025 20.3074 38.5876 19.8596 38.4004Z" fill="white"/>
<path d="M22.8148 39.3309L22.7605 39.3189C22.287 39.2137 21.8171 39.5124 21.7119 39.9862C21.6065 40.46 21.9053 40.9295 22.3792 41.0348L22.4407 41.0483C22.5037 41.0621 22.5667 41.0687 22.6287 41.0687C23.033 41.0687 23.397 40.7878 23.4866 40.3767C23.5898 39.9024 23.289 39.4342 22.8148 39.3309Z" fill="white"/>
<path d="M44.3775 25.5145C43.9037 25.411 43.4351 25.7119 43.3317 26.1861C41.8642 32.9207 36.5431 38.114 29.7756 39.4162C29.2988 39.5079 28.9869 39.9687 29.0785 40.4454C29.1595 40.8659 29.5277 41.1583 29.9407 41.1583C29.9958 41.1583 30.0517 41.1531 30.1077 41.1423C33.7554 40.4405 37.0952 38.6901 39.7661 36.0806C42.4329 33.4751 44.2598 30.1831 45.0491 26.5603C45.1524 26.086 44.8518 25.6179 44.3775 25.5145Z" fill="white"/>
<path d="M23.9213 4.55539C23.8295 4.07875 23.3688 3.76621 22.8921 3.85841C19.2445 4.56031 15.9046 6.31065 13.2337 8.92015C10.5669 11.5257 8.74002 14.8177 7.95067 18.4405C7.8474 18.9147 8.14807 19.3829 8.62233 19.4862C8.68535 19.4999 8.74836 19.5065 8.81033 19.5065C9.21471 19.5065 9.57867 19.2259 9.66823 18.8146C11.1357 12.0799 16.4568 6.88677 23.2242 5.58449C23.7009 5.49283 24.013 5.03201 23.9213 4.55539Z" fill="white"/>
<path d="M26.5 19.5117C24.8522 19.5117 23.5117 20.8522 23.5117 22.5C23.5117 24.1478 24.8522 25.4883 26.5 25.4883C28.1478 25.4883 29.4883 24.1478 29.4883 22.5C29.4883 20.8522 28.1478 19.5117 26.5 19.5117ZM26.5 23.7305C25.8215 23.7305 25.2695 23.1785 25.2695 22.5C25.2695 21.8215 25.8215 21.2695 26.5 21.2695C27.1785 21.2695 27.7305 21.8215 27.7305 22.5C27.7305 23.1785 27.1785 23.7305 26.5 23.7305Z" fill="white"/>
<path d="M26.5137 3.51562C26.0284 3.51562 25.6348 3.90911 25.6348 4.39453V6.36398C25.6348 6.8494 26.0284 7.24289 26.5137 7.24289C26.9992 7.24289 27.3926 6.8494 27.3926 6.36398V4.39453C27.3926 3.90911 26.9991 3.51562 26.5137 3.51562Z" fill="white"/>
<path d="M26.4863 37.1309C26.0009 37.1309 25.6074 37.5243 25.6074 38.0098V40.6057C25.6074 41.0911 26.0009 41.4846 26.4863 41.4846C26.9716 41.4846 27.3652 41.0911 27.3652 40.6057V38.0098C27.3652 37.5243 26.9716 37.1309 26.4863 37.1309Z" fill="white"/>
<path d="M44.6055 21.6348H42.2324C41.7471 21.6348 41.3535 22.0283 41.3535 22.5137C41.3535 22.9991 41.7471 23.3926 42.2324 23.3926H44.6055C45.0908 23.3926 45.4844 22.9991 45.4844 22.5137C45.4844 22.0283 45.0908 21.6348 44.6055 21.6348Z" fill="white"/>
<path d="M10.9434 21.6074H8.39453C7.9092 21.6074 7.51562 22.0009 7.51562 22.4863C7.51562 22.9717 7.9092 23.3652 8.39453 23.3652H10.9434C11.4287 23.3652 11.8223 22.9717 11.8223 22.4863C11.8223 22.0009 11.4287 21.6074 10.9434 21.6074Z" fill="white"/>
<path d="M24.3915 21.6211H20.3779C19.8925 21.6211 19.499 22.0146 19.499 22.5C19.499 22.9854 19.8925 23.3789 20.3779 23.3789H24.3915C24.8769 23.3789 25.2704 22.9854 25.2704 22.5C25.2704 22.0146 24.8769 21.6211 24.3915 21.6211Z" fill="white"/>
<path d="M26.5 11.2788C26.0147 11.2788 25.6211 11.6723 25.6211 12.1577V20.3902C25.6211 20.8756 26.0147 21.2691 26.5 21.2691C26.9853 21.2691 27.3789 20.8756 27.3789 20.3902V12.1577C27.3789 11.6723 26.9853 11.2788 26.5 11.2788Z" fill="white"/>
</g>
<defs>
<filter id="filter0_d" x="0" y="0" width="53" height="53" filterUnits="userSpaceOnUse" color-interpolation-filters="sRGB">
<feFlood flood-opacity="0" result="BackgroundImageFix"/>
<feColorMatrix in="SourceAlpha" type="matrix" values="0 0 0 0 0 0 0 0 0 0 0 0 0 0 0 0 0 0 127 0"/>
<feOffset dy="4"/>
<feGaussianBlur stdDeviation="2"/>
<feColorMatrix type="matrix" values="0 0 0 0 0 0 0 0 0 0 0 0 0 0 0 0 0 0 0.25 0"/>
<feBlend mode="normal" in2="BackgroundImageFix" result="effect1_dropShadow"/>
<feBlend mode="normal" in="SourceGraphic" in2="effect1_dropShadow" result="shape"/>
</filter>
</defs>
</svg>
