<svg width="46" height="54" viewBox="0 0 46 54" fill="none" xmlns="http://www.w3.org/2000/svg">
<g filter="url(#filter0_d)">
<path d="M41.0592 23.1888C41.5787 23.1888 41.9998 22.7866 41.9998 22.2905V8.08594C41.9998 5.60895 39.8901 3.59375 37.2968 3.59375H30.9216C30.4521 3.02019 29.7217 2.65039 28.9021 2.65039H27.3721C26.6235 1.0607 24.9509 0 23.0824 0H22.9173C21.0488 0 19.3763 1.0607 18.6277 2.65039H17.0977C16.2781 2.65039 15.5477 3.02019 15.0782 3.59375H8.70294C6.10974 3.59375 4 5.60895 4 8.08594V41.5078C4 43.9848 6.10974 46 8.70294 46H37.2968C39.8901 46 41.9998 43.9848 41.9998 41.5078V29.8224C41.9998 29.3263 41.5787 28.924 41.0592 28.924C40.5397 28.924 40.1186 29.3263 40.1186 29.8224V41.5078C40.1186 42.994 38.8527 44.2031 37.2968 44.2031H8.70294C7.14706 44.2031 5.88118 42.994 5.88118 41.5078V8.08594C5.88118 6.59974 7.14706 5.39062 8.70294 5.39062H14.5346V7.1875H9.64353C8.60625 7.1875 7.76236 7.99358 7.76236 8.98438V40.6094C7.76236 41.6002 8.60625 42.4062 9.64353 42.4062H36.3563C37.3935 42.4062 38.2374 41.6002 38.2374 40.6094V8.98438C38.2374 7.99358 37.3935 7.1875 36.3563 7.1875H31.4652V5.39062H37.2968C38.8527 5.39062 40.1186 6.59974 40.1186 8.08594V22.2905C40.1186 22.7866 40.5397 23.1888 41.0592 23.1888ZM16.4158 5.09863C16.4158 4.73944 16.7217 4.44727 17.0977 4.44727H19.2869C19.7115 4.44727 20.0834 4.17558 20.1947 3.78422C20.5272 2.61409 21.6467 1.79688 22.9174 1.79688H23.0824C24.353 1.79688 25.4727 2.61409 25.8052 3.78422C25.9165 4.17558 26.2884 4.44727 26.713 4.44727H28.9022C29.2782 4.44727 29.5841 4.73944 29.5841 5.09863V7.1875H16.4158V5.09863ZM36.3563 8.98438L36.3575 40.6094C36.3575 40.6094 36.3571 40.6094 36.3563 40.6094H9.64353V8.98438H15.4752H30.5246H36.3563Z" fill="white"/>
<path d="M41.7244 25.5011C41.5495 25.334 41.3068 25.2379 41.0594 25.2379C40.812 25.2379 40.5693 25.334 40.3944 25.5011C40.2194 25.6682 40.1188 25.9 40.1188 26.1363C40.1188 26.3735 40.2194 26.6043 40.3944 26.7715C40.5693 26.9395 40.812 27.0347 41.0594 27.0347C41.3068 27.0347 41.5495 26.9395 41.7244 26.7715C41.8994 26.6043 42 26.3735 42 26.1363C42 25.9 41.8994 25.6691 41.7244 25.5011Z" fill="white"/>
<path d="M24.3235 16.0757C24.1485 15.9086 23.9059 15.8125 23.6585 15.8125C23.411 15.8125 23.1684 15.9086 22.9934 16.0757C22.8185 16.2428 22.7179 16.4746 22.7179 16.7109C22.7179 16.9473 22.8185 17.1791 22.9934 17.3462C23.1684 17.5133 23.411 17.6094 23.6585 17.6094C23.9059 17.6094 24.1485 17.5133 24.3235 17.3462C24.4984 17.1791 24.599 16.9473 24.599 16.7109C24.599 16.4746 24.4984 16.2428 24.3235 16.0757Z" fill="white"/>
<path d="M33.3921 15.8125H27.7971C27.2776 15.8125 26.8565 16.2147 26.8565 16.7109C26.8565 17.2072 27.2776 17.6094 27.7971 17.6094H33.3921C33.9116 17.6094 34.3326 17.2072 34.3326 16.7109C34.3326 16.2147 33.9116 15.8125 33.3921 15.8125Z" fill="white"/>
<path d="M33.392 25.5156H23.6585C23.1389 25.5156 22.7179 25.9178 22.7179 26.4141C22.7179 26.9103 23.1389 27.3125 23.6585 27.3125H33.392C33.9116 27.3125 34.3326 26.9103 34.3326 26.4141C34.3326 25.9178 33.9116 25.5156 33.392 25.5156Z" fill="white"/>
<path d="M33.392 35.2188H23.6585C23.1389 35.2188 22.7179 35.621 22.7179 36.1172C22.7179 36.6134 23.1389 37.0156 23.6585 37.0156H33.392C33.9116 37.0156 34.3326 36.6134 34.3326 36.1172C34.3326 35.621 33.9116 35.2188 33.392 35.2188Z" fill="white"/>
<path d="M17.7326 15.8125H14.1584V12.3984C14.1584 11.9022 13.7373 11.5 13.2178 11.5C12.6983 11.5 12.2772 11.9022 12.2772 12.3984V16.7109C12.2772 17.2072 12.6983 17.6094 13.2178 17.6094H17.7326C18.2521 17.6094 18.6732 17.2072 18.6732 16.7109C18.6732 16.2147 18.2521 15.8125 17.7326 15.8125Z" fill="white"/>
<path d="M19.7092 11.4739C19.342 11.123 18.7464 11.123 18.3791 11.4739L17.0823 12.7127L16.9723 12.6076C16.605 12.2568 16.0095 12.2568 15.642 12.6076C15.2747 12.9584 15.2747 13.5273 15.642 13.8783L16.4171 14.6186C16.6008 14.794 16.8415 14.8817 17.0822 14.8817C17.3229 14.8817 17.5637 14.794 17.7473 14.6186L19.7092 12.7445C20.0766 12.3937 20.0766 11.8248 19.7092 11.4739Z" fill="white"/>
<path d="M17.7326 25.489H14.1584V22.075C14.1584 21.5787 13.7373 21.1765 13.2178 21.1765C12.6983 21.1765 12.2772 21.5787 12.2772 22.075V26.3875C12.2772 26.8837 12.6983 27.2859 13.2178 27.2859H17.7326C18.2521 27.2859 18.6732 26.8837 18.6732 26.3875C18.6732 25.8912 18.2521 25.489 17.7326 25.489Z" fill="white"/>
<path d="M19.7092 21.1518C19.342 20.801 18.7464 20.801 18.3791 21.1518L17.0823 22.3906L16.9723 22.2855C16.605 21.9347 16.0095 21.9347 15.642 22.2855C15.2747 22.6364 15.2747 23.2053 15.642 23.5562L16.4171 24.2965C16.6008 24.472 16.8415 24.5597 17.0822 24.5597C17.3229 24.5597 17.5637 24.472 17.7473 24.2965L19.7092 22.4225C20.0766 22.0716 20.0766 21.5027 19.7092 21.1518Z" fill="white"/>
<path d="M17.7326 35.2188H14.1584V31.8047C14.1584 31.3085 13.7373 30.9062 13.2178 30.9062C12.6983 30.9062 12.2772 31.3085 12.2772 31.8047V36.1172C12.2772 36.6134 12.6983 37.0156 13.2178 37.0156H17.7326C18.2521 37.0156 18.6732 36.6134 18.6732 36.1172C18.6732 35.621 18.2521 35.2188 17.7326 35.2188Z" fill="white"/>
<path d="M19.7092 30.8801C19.342 30.5293 18.7464 30.5293 18.3791 30.8801L17.0823 32.119L16.9723 32.0139C16.605 31.6631 16.0095 31.6631 15.642 32.0139C15.2747 32.3648 15.2747 32.9337 15.642 33.2846L16.4171 34.0249C16.6008 34.2003 16.8415 34.288 17.0822 34.288C17.3229 34.288 17.5637 34.2003 17.7473 34.0249L19.7092 32.1508C20.0766 31.8 20.0766 31.2311 19.7092 30.8801Z" fill="white"/>
</g>
<defs>
<filter id="filter0_d" x="0" y="0" width="46" height="54" filterUnits="userSpaceOnUse" color-interpolation-filters="sRGB">
<feFlood flood-opacity="0" result="BackgroundImageFix"/>
<feColorMatrix in="SourceAlpha" type="matrix" values="0 0 0 0 0 0 0 0 0 0 0 0 0 0 0 0 0 0 127 0"/>
<feOffset dy="4"/>
<feGaussianBlur stdDeviation="2"/>
<feColorMatrix type="matrix" values="0 0 0 0 0 0 0 0 0 0 0 0 0 0 0 0 0 0 0.25 0"/>
<feBlend mode="normal" in2="BackgroundImageFix" result="effect1_dropShadow"/>
<feBlend mode="normal" in="SourceGraphic" in2="effect1_dropShadow" result="shape"/>
</filter>
</defs>
</svg>
