<svg version="1.1" xmlns="http://www.w3.org/2000/svg" viewBox="0 0 45 48.4">
<style type="text/css">
	.st0{fill:#FFFFFF;}
	.st1{fill:#B6BFC1;}
	.st2{fill:#D9E1E2;}
</style>
<path class="st0" d="M39.8,8.2c-0.7-1-0.3-1.5,0.7-5c-4.3-1.2-10-3.1-18-3.1h-0.3C12.2,0,4.7,3.1,0.4,4.8c-0.4,4.5-0.6,9,0,15.3
	c1,9.9,3.7,17.3,8,22.1c3.6,4,8.3,6.1,13.8,6.1c0.1,0,0.2,0,0.3,0c6.1,0,14.3-2.5,19-14.3C44.9,25.4,45,15.8,45,9.8
	C41.9,9.4,40.6,9.4,39.8,8.2z M22.5,44.7c-0.1,0-0.1,0-0.2,0C0.6,44.5,3.9,7.4,3.9,7.4c6.4-2.5,12.5-3.7,18.4-3.7h0.2
	c4.6,0,9,0.7,13.5,2c-0.9,3.4,1.6,6.8,5.3,7.3C41.2,23.4,39,44.7,22.5,44.7z"/>
<path class="st1" d="M41.3,13C41.2,23.4,39,44.7,22.5,44.7c-0.1,0-0.1,0-0.2,0v-9.1H25v-7.7h7.7v-5.5H25v-7.7h-2.8v-11
	c4.7,0,9.2,0.7,13.7,2C35,9.1,37.6,12.5,41.3,13z"/>
<path class="st2" d="M19.5,35.6h2.8v9.1C0.6,44.5,3.9,7.4,3.9,7.4c6.4-2.5,12.5-3.7,18.4-3.7v11h-2.8v7.7h-7.7v5.5h7.7V35.6z"/>
</svg>