<svg width="0" height="0" class="hidden">
  <symbol xmlns="http://www.w3.org/2000/svg" viewBox="0 0 512 384.1" id="youtube">
    <path d="M265 32c65.3 0 118.7 1.1 168.1 3.3h1.4c23.1 0 42 22 42 49.1v1.1l.1 1.1c2.3 34 3.4 69.3 3.4 104.9.1 35.6-1.1 70.9-3.4 104.9l-.1 1.1v1.1c0 13.8-4.7 26.6-13.4 36.1-7.8 8.6-18 13.4-28.6 13.4h-1.6c-52.9 2.5-108.8 3.8-166.4 3.8h-10.6.1-10.9c-57.8 0-113.7-1.3-166.2-3.7h-1.6c-10.6 0-20.7-4.8-28.5-13.4-8.6-9.5-13.4-22.3-13.4-36.1v-1.1l-.1-1.1c-2.4-34.1-3.5-69.4-3.3-104.7v-.2c-.1-35.3 1-70.5 3.3-104.6l.1-1.1v-1.1c0-27.2 18.8-49.3 41.9-49.3h1.4c49.5-2.3 102.9-3.3 168.2-3.3H265M265 0h-18C189.4 0 132.8.8 77.4 3.3 36.6 3.3 3.5 39.6 3.5 84.6 1 120.4-.1 156 0 191.7c-.1 35.7.9 71.3 3.4 107 0 45 33.1 81.6 73.9 81.6 54.8 2.6 110.7 3.8 167.8 3.8h21.6c57.1 0 113-1.2 167.9-3.8 40.9 0 74-36.6 74-81.6 2.4-35.7 3.5-71.4 3.4-107.1.1-35.7-1-71.3-3.4-107.1 0-45-33.1-81.1-74-81.1C379.2.8 322.7 0 265 0z"></path>
    <path d="M207 289.8V93.4l145 98.2-145 98.2z"></path>
  </symbol>
  <symbol xmlns="http://www.w3.org/2000/svg" viewBox="0 0 793.2 793.1" id="attention">
    <path d="M779.4 292.7c-.2-.5-.6-1.5-.7-2s-.1-1.4-.3-1.9l-.8-2-.1-1.2-1-1.9v-1.1c-.2-.5-.7-1.4-.9-1.9-.1-.6-.3-1.9-.4-2.5C736.3 153.9 638.8 56.6 514.5 17.8l-1.9-.3-2-.8c-2.6-1.2-5.4-1.9-8.2-2.3l-2-.7-1.9-.3-2-.7-2-.4-2-.6c-1.9-.8-3.9-1.3-6-1.4l-2-.6c-5.7-1.6-11.6-2.5-17.4-3.6C414.7-3 360.5-2.1 308.7 9.9l-2 .6-2 .4-2 .6-2 .4-2 .6-2 .4-2 .7-2 .3-2 .7c-2.8.4-5.5 1.1-8.1 2.3l-2 .7-1.8.3c-68.3 21.3-129.6 60.6-177.3 113.9-1.6 1.9-3.8 3.6-4.8 6-.2 1-.9 1.8-1.8 2.2-2.3 1.4-3.7 3.8-5.4 5.8C58.9 183 35.3 225.7 20 271.7c-.8 2.9-2.3 5.8-2.5 8.9l-.7 2c-.7 1.3-1.2 2.7-1.2 4.2l-.7 2c-.1.5-.1 1.4-.3 1.9s-.6 1.5-.7 2c-.1.5-.2 1.5-.3 1.9-.2.5-.5 1.5-.7 2-.9 2.6-1.6 5.2-2.1 7.9C.3 348.7-2.6 394.3 2.3 439.4c2.2 19.3 5.3 38.5 10.6 57.1.2.5.6 1.5.7 2 .1.5.2 1.4.3 1.9s.6 1.5.7 2 .1 1.4.3 1.9.5 1.5.7 2c.1 1.4.5 2.9 1.2 4.1.2.5.7 1.5.7 2s.2 1.3.2 1.8c21.9 70.3 63 133.2 118.6 181.5 2.4 1.9 4.5 4.4 7.3 5.7 1 .1 1.9.8 2.2 1.8.5.8 1.1 1.5 1.8 2.1 37.3 30.1 79.7 53.2 125.3 68.2 2.6.7 5 1.9 7.7 2.1l2 .8c1.3.7 2.7 1.1 4.2 1.2l2 .7 2 .3 2 .7 1.9.3 2 .7c3.2 1.2 6.6 2 10 2.4l2 .6c19.3 4.7 39 7.3 58.8 8.9 39.1 2.7 78.8.1 117-8.9l2-.6 2-.3 2-.7c2.1-.1 4.1-.5 6-1.3l2-.7 2-.3 2-.7c1.7-.1 3.4-.5 5-1.3l2-.8 1.2-.1 1.9-.9c3-.2 5.7-1.5 8.6-2.4 121-40.1 215.5-135.9 254-257.4.4-1 .6-2.1.6-3.3.2-.5.6-1.4.9-1.9v-1.1l1-1.9.1-1.2c.2-.5.7-1.5.7-2s.2-1.4.3-1.9.5-1.5.7-2c.6-1.5 1-3.1 1.4-4.7 16.8-66.3 16.7-137.1-1.5-203.1zM448.3 172.4c-8.6 80.5-17.3 160.9-25.9 241.4h-51.7c-8.6-80.5-17.2-160.9-25.9-241.4h103.5zm-44.1 413.5c-28.3 4.1-54.7-15.5-58.8-43.8-2.7-18.7 4.9-37.4 20-48.8 7-5.3 15.2-8.8 23.8-10 28.3-4.1 54.7 15.5 58.8 43.8 4.1 28.3-15.5 54.6-43.8 58.8z"
      fill="#c32a4e"></path>
  </symbol>
  <symbol xmlns="http://www.w3.org/2000/svg" viewBox="0 0 24 20" id="mail">
    <path d="M12 11C10 11 0 2.9 0 2.9V2C0 .9.9 0 2 0h20c1.1 0 2 .9 2 2v1s-10 8-12 8zm0 2.8c2.1 0 12-7.8 12-7.8v12c0 1.1-.9 2-2 2H2c-1.1 0-2-.9-2-2V6s10 7.8 12 7.8z" fill-rule="evenodd" clip-rule="evenodd"></path>
  </symbol>
  <symbol xmlns="http://www.w3.org/2000/svg" viewBox="0 0 247.5 227.5" id="personal">
    <path d="M116.8.4c13.6-1.7 27.8 1.7 39.1 9.6C169 19 178 33.5 180 49.2c1.8 13.1-1.2 26.8-8.3 38-7.8 12.4-20.6 21.6-34.9 24.9-14 3.3-29.3 1.1-41.7-6.3-12.9-7.5-22.6-20.2-26.3-34.7-4.1-15.6-1.2-32.8 7.8-46.1 9-13.5 24.1-22.7 40.2-24.6zM27.3 156.7c15.9-17.7 38-29.7 61.5-33.3 11.7 17.1 23.2 34.3 34.9 51.4 11.7-17.1 23.2-34.3 34.9-51.4 26.3 4.1 50.8 18.7 67 39.8 14.2 18.2 22 41.2 22 64.3H.1c-.2-25.9 9.7-51.7 27.2-70.8z"></path>
  </symbol>
  <symbol viewBox="0 0 1084 956" xmlns="http://www.w3.org/2000/svg" id="logo-white">
    <g fill="#f8f8f8">
      <path d="M477.15 3c4.9-2.83 11.06-3.86 16.34-1.39 8.14 3.65 14.6 9.98 21.55 15.4 11.81-5.06 22.44-14.63 35.88-14.49 12.76 1.56 21.2 12.5 31.87 18.48 8.09-2.77 15.81-6.68 24.21-8.49 5.31-1.15 11.14-.94 15.94 1.86 9.57 5.43 16 14.76 24.73 21.26 10.19-3.21 20.48-6.1 30.75-9.04.23 2.37-1.96 3.8-3.39 5.3-6.68 5.79-15.2 8.82-23.48 11.51-11.28 3.35-22.84 6.25-34.65 6.63-10.58.84-21.22.84-31.79 1.69-11.17 2.93-22.57 5.03-34.09 5.91-5.12.32-9.94 2.18-14.9 3.27-1.69.6-3.99.68-4.82 2.52-7.2 12.55-14.62 24.97-21.65 37.61 4.24 1.03 8.62 2.35 11.94 5.32 2.83 2.44 3.88 6.18 6.04 9.13 2.85 4.54 6.73 8.27 10.32 12.21-5.56-4.68-10.9-9.82-14.51-16.21-3.79-6.66-12.37-8.13-19.39-8.06-4.64 1.54-9.11 3.58-13.68 5.32.42 6.39 1.17 12.94-.29 19.25-.6 3.03-3.44 4.63-5.45 6.66-4.97 4.87-9.87 10.04-13.07 16.29-1.73 3.07-1.24 6.68-1.37 10.05-.12 6.43-.46 13.13-3.36 19.01-2.43 5.24-8.03 8.41-9.67 14.08-1.19 4.5 2.63 8.13 5.78 10.7 8.24 6.01 17.47 10.48 25.88 16.23 3.9 2.68 7.85 5.85 9.64 10.39 1.08 3.08 1.64 6.36 1.72 9.63-.07 3.02-3.34 4.1-4.99 6.17-6.41 6.82-12.65 14.55-14.66 23.9.04 6.75 1.03 13.76 5.06 19.38 3.52 5.69 9.52 10.27 16.41 10.48 6.32.45 13.35.39 18.6 4.49 3.37 2.58 3.68 7.08 5.2 10.74 3 7.89 7.18 15.73 13.88 21.07 3.77 2.96 8.55 4.71 13.37 4.46 8.5-.43 17.02-1.68 25.07-4.52 9.51-3.35 18.08-9.18 25.49-15.82l.15.57c-.28.25-.82.74-1.1.99-3.94 3.32-7.63 6.96-11.96 9.8-11.05 7.73-24.45 11.31-37.74 12.57-7.28.62-14.4-2.69-19.52-7.71-7.61-7.22-11.75-17.09-15.25-26.75-3.5-3.93-9.42-3.45-14.21-3.83-6.93.26-13.78-2.35-18.8-7.1.46 20.46.58 40.93.42 61.39-.17 4.58.14 9.28-1.15 13.73-5.3-52.68-10.39-105.39-15.51-158.09-.89-.66-1.76-1.31-2.64-1.96.29 10.97 1.7 21.92 2.44 32.89 4.14 50.08 8.26 100.16 12.41 150.23.49 3.98.17 8 .44 12-1.1-2.55-1.58-5.3-2.23-7.98-11.51-48.04-23.01-96.09-34.52-144.13-8.84-37.43-18.16-74.76-26.7-112.25 13.27-6.71 26.96-12.53 40.62-18.36 1.31 15.26 2.59 30.52 3.77 45.79 1.22-2.56 1.48-5.48 1.28-8.27-1.21-12.41-2.46-24.81-3.63-37.21l.22-.62c8.65-3.42 17.49-6.31 26.32-9.23-.05-2.27-.07-4.55-.05-6.83-9.35 2.17-18.21 6.07-27.35 8.96-1.79-21.27-4.31-42.54-6.02-63.78-1.28-3.56-.55-7.38-.8-11.06-.01 3.93-.65 8 .75 11.79-.13 6.05.96 12 1.19 18.03 1.37 15.15 2.42 30.32 3.84 45.46-14.22 5.67-28.27 11.77-41.95 18.65-5.63-23.65-11.31-47.28-16.96-70.92l-.56-1.16c-.2-2.72-.4-5.44-1.63-7.93.61 6.07 2.84 11.86 3.87 17.88 4.64 20.95 9.35 41.9 13.98 62.85-15.83 7.91-30.92 17.18-45.82 26.68-9.94-24.88-20.25-49.63-30.35-74.45-1.22-2.02-.86-4.67-2.64-6.37-.6-2.7-1.59-5.29-3.01-7.71-.06 2.45 1.38 4.46 2.3 6.61 10.83 27.67 21.73 55.33 32.41 83.06-12.85 8.54-25.16 17.9-36.97 27.83-13.69-22.8-26.87-45.91-40.37-68.82-3.92-7.12-8.58-13.86-11.88-21.28-.56 1.43.7 2.49 1.31 3.65 16.6 29.09 32.76 58.44 49.5 87.45-11.62 10.41-23.32 20.78-33.91 32.25-23.18-28.31-46.12-56.82-69.23-85.19-1.03-2.56-3.09-4.49-5.31-6.02 1.64 2.73 4.27 4.73 6.11 7.36 22.37 28.39 44.74 56.79 67.07 85.22-8.79 9.53-17.42 19.24-25.23 29.59-26.4-25.48-52.78-50.99-79.17-76.47-1.81-1.77-3.53-3.64-5.59-5.12 27.85 27.72 55.68 55.47 83.53 83.2-8.58 11.2-16.87 22.67-24.12 34.77-2-.67-3.53-2.18-5.23-3.37-29.1-21.33-58.15-42.73-87.28-64.01l.2-1c-1.91-.07-3.68-1.24-4.13-3.17-.47.01-1.43.02-1.91.02-.52-.34-1.57-1.03-2.09-1.38 2.94 2.32 5.77 4.75 9 6.68 30.01 22.69 60.01 45.4 89.98 68.15-7.11 11.7-13.66 23.74-19.85 35.95-33.49-18.53-67.1-36.84-100.6-55.33-4.63-2.33-8.75-5.42-13.57-7.34 2.19 1.2 4.29 2.57 6.27 4.1 3.15 1.06 5.95 2.88 8.81 4.53 32.77 18.64 65.53 37.29 98.29 55.94-6.08 12.67-11.63 25.61-16.37 38.84-43.5-16.33-86.94-32.88-130.37-49.32-2.49-1.76-5.56-2.48-8.5-2.94 3.68 1.39 7.26 3.09 11.1 4.03.51 2.12 3.61.53 4.8 2.17 1.11 1.37 3.07.9 4.5 1.66 39.19 15.58 78.46 30.96 117.62 46.6-4.75 13.36-8.93 26.94-12.2 40.75-43.39-9.44-86.69-19.45-130.02-29.14-3.7-.63-7.26-2.19-11.08-2.03 3.85.18 7.45 1.59 11.18 2.41 1.97 1.39 4.72.43 6.9 1.54 40.73 9.94 81.51 19.7 122.29 29.45-2.68 12.37-5.21 24.77-7.14 37.28-44.65-4.5-89.41-8.85-134.01-13.31-2.44-.8-5.04-.35-7.56-.38l-.52-.81c-3.35-.19-6.74-.21-10.1-.1 5.07-.5 9.86 1.4 14.91 1.15 2.75-.09 5.26 1.46 8.05 1.07 42.96 4.82 85.92 9.87 128.9 14.63-1.93 14.01-3.08 28.1-4.09 42.2-38.63 1.27-77.27 2.85-115.9 4.27-9.59.87-19.23.35-28.85.65 18 .75 35.96-.52 53.95-.68 30.28-.71 60.57-1.36 90.85-2.09-.5 13.13-.28 26.28.13 39.4-42.06 7.1-84.22 13.73-126.31 20.66-2.19.78-4.78.1-6.76 1.43-4.42-.31-8.45 1.78-12.87 1.31 2.34.09 4.79.42 7.01-.53 46.35-6.61 92.79-13.83 139.22-20.32.6 14.48 2.66 28.85 4.31 43.22-17.28 4.94-34.37 10.56-51.58 15.77-20.7 6.45-41.46 12.69-62.12 19.27-4.41.86-8.46 3.04-12.93 3.64-3.58 1.1-7.01 3.16-10.84 3.2-.64.22-1.27.5-1.87.84 3.39-.13 6.47-1.74 9.7-2.61 4.42-1.05 8.74-2.5 13.05-3.93 39.11-11.14 78.06-22.9 117.13-34.2 2.42 14.22 5.35 28.37 9.1 42.31-32.75 15.29-65.63 30.31-98.33 45.7-3.76 1.52-7.35 3.43-11.08 5.02-2.58.57-4.81 1.97-7.08 3.26-4.19 1.74-8.42 3.42-12.45 5.52 1.78.06 3.34-.81 4.86-1.61 41.34-18.83 83.11-37.17 124.63-55.8 3.77 13.6 8.06 27.06 13.16 40.23-32.21 20.43-64.51 40.72-96.75 61.09-4.27 2.85-8.97 4.97-12.99 8.16 3.49-.55 5.45-4.29 8.99-4.3l.06-1.05c33.84-20.6 67.62-41.33 101.47-61.9 4.71 12.37 10.16 24.45 15.94 36.36a46085.8 46085.8 0 0 0-87.5 71.32c-2.16 2.15-5.25 3.21-6.97 5.84 2.59-1.16 4.29-3.58 6.57-5.19 29.61-23.42 59.17-46.91 88.86-70.22 7.19 14.64 15.56 28.68 24.27 42.46-12.64 13.97-25.71 27.6-38.52 41.45-7.99 8.28-15.43 17.14-23.82 25-3.96 5.47-9.3 9.8-13.41 15.12 3.83-3.01 6.26-7.45 10.33-10.2 6.71-7.99 14.29-15.27 21.45-22.89 14.83-15.42 29.62-30.89 44.49-46.28 1.12-.84 1.61 1.15 2.25 1.75 7.58 11.49 15.96 22.44 24.53 33.2 1.59-1.67 2.95-3.53 4.36-5.33-9.1-11.41-17.86-23.12-25.65-35.47 56.21-58.31 112.22-116.8 168.35-175.18 4.67-4.95 9.52-9.74 14.09-14.79 18.62-24.45 40.82-46.02 64.69-65.32 11.51-9.12 23.13-18.18 35.63-25.91-25.54 19.66-49.41 41.53-71.16 65.32-13.68 15.21-26.49 31.34-36.82 49.04-10.11 17.24-18.03 36.28-19.47 56.41-.76 9.81.61 19.66 3.24 29.11-3.9 9.13-9.47 17.85-16.93 24.5-4.21 4-10.25 4.26-15.29 6.62-7.82 3.39-15.4 7.58-21.91 13.14-2.54 2.4-5.67 4.99-5.66 8.83-1.12 8.71-5.48 18-13.96 21.66-11.81 4.22-22.9 10.21-33.66 16.61-4.98 3.14-10.34 5.86-14.49 10.14-3.37 3.07-4.96 7.45-7.43 11.2 4.18-3.87 10.44-5.88 15.84-3.4 8.38 3.78 13.35 12.34 16.47 20.62 2.49 6.07 1.89 12.87 4.38 18.94 4.89 13.26 15.51 23.92 28 30.26 7.74 3.95 16.43 6.99 25.24 5.76 11.31-1.5 21.26-7.56 30.83-13.36 17.23-10.83 34.01-22.45 52.03-31.98 16.45-8.7 36.06-11.26 54.16-6.81 15.05 3.36 28.9 11.46 39.35 22.8 17.89 20.23 44.55 30.36 70.76 34 15.41 2.21 31.93 2.69 46.27-4.27 12.02-5.65 20.99-16.11 27.36-27.53 8.63-15.01 13.79-31.73 22.5-46.71 6.19-10.66 15.23-20.34 27.12-24.45 13.72-4.81 29.04-1.59 41.43 5.37 8.55 4.85 16.95 10.02 25.85 14.24 13.11 6.24 27.56 11.41 42.3 9.65 7.54-.75 14.08-5.86 17.57-12.45 6.24-11.44 7.33-24.73 8.61-37.45-.22-6.7 1.07-13.31 1.25-19.99.8-3.96 1.89-7.87 3.2-11.69.47-2.03 2.63-2.85 3.36-4.73.91-2.46 3.5-3.54 5.38-5.14 1.46-1.21 3.26-2.48 5.28-2-10.36 3.46-15.66 14.35-16.96 24.56-.11 6.34-1.35 12.61-1.04 18.97-1.18 12.13-1.78 24.66-6.75 35.99-2.17 5.06-4.49 10.55-9.3 13.68-6.93 4.88-15.95 4.74-23.98 3.51-14.28-2.59-27.73-8.48-40.39-15.42-10.78-5.87-22.03-11.38-34.22-13.52-10.79-1.8-22.72.27-31.05 7.72-7.6 6.74-13.41 15.25-18.43 24-8 14.55-12.4 30.96-21.98 44.66-8.31 11.22-19.07 21.37-32.58 25.8-15.2 5.13-31.59 3.68-47.15 1.2-22.17-3.75-44.17-12.2-60.97-27.51-4.02-3.64-7.39-7.93-11.57-11.4-16.24-14.4-39.14-20.56-60.48-17.17-10.64 1.66-20.63 6.06-29.79 11.62-14.42 8.35-28.21 17.73-42.18 26.79-7.57 4.74-15.15 9.84-23.92 12.06-8.8 2.25-18.26 3.13-27.1.61-19.2-5.52-36.58-19.53-43.39-38.66-2.45-6.15-1.87-13.03-4.59-19.08-2.72-6.48-6.59-13.35-13.29-16.31-4.11-1.78-8.34.95-10.85 4.11-7.92 9.56-14.69 20.01-21.6 30.31-11.23 16.91-21.89 34.18-32.72 51.34 2.31 3.11 5.14 5.78 7.48 8.86 1.33 1.58.04 3.52-.71 5.05-6.58 12.28-12.76 24.82-20.25 36.59-1.06 2.45-4.85 3.3-6.34.84-3.91-6.87-6.33-14.46-9.87-21.51-11.73-3.24-25.59-1.96-35.26-10.52-8.54-9.07-8.83-22.35-13.36-33.4-8.97-3.16-18.62-4.6-26.94-9.41-4.57-2.57-7.99-6.89-9.68-11.83-3.46-9.79-3.58-20.33-6.02-30.36-8.83-2.86-18.02-5.12-26.07-9.89-4.57-2.66-7.75-7.43-8.28-12.7-1.19-10.35 1.16-20.65 2.28-30.9-8.77-3.23-17.64-6.73-25.18-12.36-5.01-3.7-8.76-9.36-9.09-15.7-.52-9.38 2.5-18.49 5.26-27.33-8.89-9.44-22.01-15.62-26.97-28.24-3.26-12.09 3.22-23.77 5.24-35.5-7.44-9.4-18.52-16.79-21.63-28.95-1.92-12.63 6.51-23.44 10-35.01-5.79-8.97-13.91-16.7-17.16-27.09-2.72-8.79 2-17.42 6.14-24.9 2.5-4.33 4.9-8.72 7.2-13.17-4.1-9.67-11.33-18.13-12.95-28.76-1.02-6.17 1.53-12.18 4.75-17.29 4.55-7.16 10.15-13.57 14.72-20.71-4.48-8.68-9.89-17.22-11.55-26.99-1.13-6.03 1.43-12.09 5.55-16.42 5.8-6.2 12.85-11.08 19.86-15.8-1.83-12.83-9.47-25.63-5.31-38.75 5.04-11.26 17.1-16.54 25.4-24.97-.61-10.1-3.36-20.25-1.45-30.35 1.09-6.07 5.37-10.92 10.2-14.46 7.08-5.25 14.99-9.23 22.22-14.26-.92-9.8-2.7-19.88-.26-29.59 1.41-5.86 6.03-10.39 11.42-12.78 8.29-3.77 17.24-5.78 26.01-8.14.35-9.55-.67-19.37 2.06-28.66 1.6-5.53 6.34-9.43 11.53-11.48 9.4-3.86 19.49-5.56 29.32-7.98l.36-.4c1.29-10.19 2.28-20.82 7.24-30.01 2.72-5.12 7.6-8.98 13.24-10.33 8.41-2.02 17.14-1.3 25.69-.84 5.06-8.71 7.88-18.6 13.68-26.9 2.88-4.17 7.02-7.61 11.99-8.88 9.64-2.62 19.73-1.08 29.57-1.91 1.28.04 1.74-1.35 2.41-2.18 5.39-8.18 9.45-17.62 17.25-23.89 4.66-3.86 10.96-4.67 16.8-4.37 7.75.33 15.37 2.05 23.12 2.33 6.86-7.5 11.98-16.77 20.51-22.61 5.29-3.75 12.13-3.98 18.32-2.91 8.56 1.45 16.82 4.27 25.36 5.82 6.12-7.51 11.88-15.69 20.11-21.08 4.87-3.27 11.18-3.85 16.69-1.99 8.81 2.92 16.4 8.47 23.97 13.68 8.16-6.61 15.92-13.86 25.12-19.03z"></path>
      <path d="M660.13 60.73c15.12-4.28 26.66-16.19 35.74-28.49-2.85 5.99-6.91 11.31-11.22 16.32-6.51 7.41-14.52 13.95-24.11 16.81-22.13 5.62-43.78 12.92-65.49 19.95-9.35 3.21-18.8 6.15-27.98 9.8-4.32 1.65-8.29 5.07-9.3 9.74-1.76 10.03-4.08 19.95-6.24 29.9-2.91 15.24-1.39 31.22 3.7 45.84l.79.54c-.02-10.98 5.45-20.89 10.78-30.14 4.64-7.55 9.63-15.02 16.01-21.23 2.24-2.36 5.44-3.16 8.33-4.43 3.06-1.19 4.28-4.56 6.77-6.5 10.54-9.18 25.45-12.33 39.04-9.9 14.52 2.68 28.34 9.84 38.37 20.75 6.86 6.9 9.68 16.88 10.24 26.36-.22 8.43-1.72 16.77-3.33 25.02-.96 3.54-1.45 7.4-3.56 10.49-1.31 1.83-3.92 1.29-5.56 2.47-2.16 6.47-2 13.66-5.22 19.78-1.62 2.72-5.18 1.74-7.71 1.32.19 1.71 1.1 4.33-1.07 5.2-1.72.46-3.53.22-5.27.31-.58 1.69-.67 3.65-1.84 5.07-3.07 2.36-6.38 4.37-9.53 6.63 5.86 1.63 11.89 2.64 17.62 4.75 4.75 1.77 9.72 3.07 14.81 3.33 13.12.54 26.29.94 39.27 3 10.45 1.48 19.97 8.68 24.11 18.4.79 4.14.58 8.43 1.1 12.62 4.09 1.85 7 6.01 6.91 10.57-.04 5.69-1.1 11.32-2.17 16.9-.89 3.95-1.42 8.14-3.72 11.59 22.32-3.71 44.61-7.72 66.59-13.12 8.71-2.33 17.63-4.45 25.48-9.03 10.83-6.06 21.71-13.42 34.48-14.22 9.24 1 18.62 1.57 27.88.38 4.51-.88 9.04-2.14 13.69-1.7 1.96-.01 4.06 1.67 5.84-.04-.01.84-.01 1.69.02 2.53-4.72-.93-9.6-1.62-14.35-.46-9.86 2.37-20.07 1.27-30.08.89-5.46-.94-10.85 1-15.84 3.02-10.3 3.95-18.83 11.33-29.23 15.09-28.91 10.17-58.8 17.33-88.91 22.96-1.91.75-4.12-.78-3.88-2.86 1.4-3.99 4.57-7.23 5.16-11.54 1.28-7.06 2.95-14.26 2.4-21.47-.4-4.01-6.38-2.66-6.76-6.48-.55-4.5-.62-9.04-1.16-13.53-3.27-6.89-10.08-11.99-17.57-13.41-8.01-1.53-16.17-2.07-24.29-2.64-9.34-.73-18.96-.22-27.91-3.46-10.14-3.99-20.82-6.36-31.43-8.74-16.61-3.47-33.71.66-49.1 7.02-9.75 4.16-19.18 9.24-27.83 15.35-.36-1.27 1.58-1.41 2.23-2.17 11.25-8.73 23.65-16.09 37.03-21.05 12.16-4.4 25.4-6.64 38.27-4.45 3.36.39 6.72 1.87 10.11.71.14.62.41 1.85.55 2.46.55-1.27 1.04-2.57 1.67-3.81 2.33-.94 4.05-2.9 6.09-4.32 2.52-1.4 1.12-5.08 3.37-6.69 1.59-.67 3.37-.44 5.06-.63-.28-1.82-1.85-4.2-.03-5.67 2.27-.81 4.74.27 7.11-.18 2.13-6.28 2.14-13.02 3.79-19.41.56-2.4 2.87-3.68 5.15-4.04 1.47 0 1.48-1.76 1.89-2.74 2.03-7.87 2.88-15.99 3.58-24.06.9-8.3-1.22-16.85-5.52-23.96-7.98-10.11-19.45-17.25-31.78-20.8-9.79-2.95-20.64-2.95-30.16.98-4.85 2.03-9.56 4.89-12.65 9.25-2.63 3.74-7.37 4.46-11.11 6.53-6.14 5.33-10.79 12.14-15.27 18.86-4.68 7.59-9.44 15.46-11.24 24.3-.89 3.87.17 8.82 4.24 10.41 2.21 1.12 7.22.57 5.89 4.49-6.22 5.69-12.63 11.2-18.57 17.2-6.25 6.49-9.49 15.17-11.44 23.8-1.66 7.89-3.26 15.81-4.39 23.79-.17-4.01.6-7.97.9-11.96 1.12-9.86 2.23-19.96 6.44-29.07 4.3-9.51 12.85-15.96 19.78-23.45-2.64-.92-4.75-2.79-6.52-4.89.22.96.68 2.87.91 3.83-10.51-16.56-15.44-36.8-12.92-56.32 1.59-10.69 3.86-21.26 5.41-31.95 1.46-7.13 7.52-12.33 14.14-14.71 16.81-6.55 34.1-11.8 51.38-16.95 14.22-4.15 28.58-7.86 43.14-10.64zM372.06 173.11c14.37-9.54 29.04-18.78 44.6-26.26 11.93 55.34 24.01 110.64 35.99 165.96 8.06 36.66 15.75 73.41 24.03 110-5.22-11.16-9.58-22.75-14.47-34.07-30.05-71.88-60.15-143.73-90.15-215.63zm-37.57 28.72c11.38-9.96 23.57-18.94 35.92-27.65 17.63 43.71 34.69 87.65 52.1 131.44 16.77 42.49 33.61 84.96 50.35 127.47-5.99-9.11-11.25-18.71-16.96-28-40.48-67.75-80.88-135.54-121.41-203.26zm-34.25 32.61c10.43-10.99 21.33-21.55 32.83-31.42 45.59 79.95 91.09 159.95 136.74 239.87-6.86-7.44-12.85-15.68-19.38-23.43-50.05-61.68-100.19-123.29-150.19-185.02zm-25.85 30.43a419.541 419.541 0 0 1 24.48-28.94C354.06 306.5 409.2 377.1 464.38 447.68c.54.72 1.06 1.47 1.56 2.24-63.91-61.62-127.69-123.38-191.55-185.05z"></path>
      <path d="M720.26 261.1c.69 1.56 1.25 3.19 1.4 4.9 1.24 10.93 2.57 22.12.43 33.03-.9 4.31-3.14 9.61-8.14 10.14-6.65.61-12.75-2.79-18.51-5.63-7.44-3.7-14.9-8.47-23.46-8.62-6.77-.13-12.75 5.34-13.8 11.92-1.86 10.36 1.83 20.7 5.99 30.04 2.63 6.33 1.08 14.41-4.7 18.46-9.11 6.22-20.09 11.75-31.45 9.81-8.56-1.49-14.86-8.47-18.24-16.1-7.19 7.93-14.06 16.33-18.95 25.9-2.11 4.4-4.07 9.2-3.54 14.17.25 2.71 2.13 4.79 3.72 6.85 11.39 14.72 22.49 29.92 30.11 47.01 4.57 10.35 7.86 21.59 7.19 33.02-.79 14.16-3.96 28.33-10.26 41.1-3.68 7.12-8.38 14.28-15.6 18.21-19.71 10.02-39.77 19.46-58.5 31.25-7.51 4.91-15.25 9.9-20.75 17.13 4.31-7.08 11.2-12.02 17.76-16.86 15.92-11.19 32.95-20.71 50.15-29.77 6.08-3.36 13-5.98 17.07-11.96 9.89-13.56 13.52-30.61 14.75-47.07 1.43-16.54-5.8-32.23-13.9-46.18-7.04-11.98-15.54-23.02-24.13-33.91-2.33-2.75-3.76-6.26-3.78-9.88-.21-7.28 3.13-14.04 6.7-20.18 5.82-9.54 13.08-18.16 20.96-26.06 1.2-1.72 4.25-1.51 4.89.61 1.55 5.4 4.13 10.81 8.75 14.26 3.84 2.95 8.94 3.9 13.67 3.14 7.28-1.09 13.96-4.62 20.02-8.66 3.95-2.59 5-7.95 3.3-12.19-4.41-10.62-8.11-22.51-5.25-34.02 1.95-8.35 10.27-14.65 18.89-13.8 10.65.92 19.48 7.61 28.79 12.23 3.83 1.86 7.96 3.85 12.35 3.34 3.79-.79 5.17-5.02 6.12-8.29 2.4-10.29 1.61-20.97 1.05-31.42-.05-2.03-.49-4-1.1-5.92zm-470.78 39.37c7.53-11.45 15.08-22.92 23.51-33.75 28.52 27.85 56.39 56.39 84.68 84.48 28.03 28 55.97 56.09 84.01 84.08 7.74 7.85 15.71 15.48 23.3 23.47-29.55-21.27-58.75-43.06-88.16-64.53-40.77-29.92-81.55-59.84-122.32-89.76-1.73-1.26-3.53-2.44-5.02-3.99z"></path>
      <path d="M914.99 276.26c4.93-.73 10.79-1.46 15.05 1.71 1.59.63 1.25 2.65 1.05 3.99-2.98 2.99-6.92 4.7-10.67 6.48-11.78 5.23-24.01 9.33-35.98 14.08-4.92 1.73-9.18 4.77-13.82 7.06-11.84 5.67-24.09 10.54-36.67 14.29-29.1 14.28-58.39 28.26-88.42 40.48-9.77 2.3-19.18 5.9-28.58 9.4-1.51.46-3.44 1.62-4.8.17-10.41-7.95-20.49-16.34-31.04-24.11-6.5 9.33-15.46 18.34-27.17 20.15-3.59.28-7.68.58-10.74-1.66 5.39 2.16 11.69.37 16.61-2.3 8.16-4.75 13.96-12.54 18.66-20.55.57-1.53 2.52-1.61 3.7-.71 11.2 7.36 21.65 15.8 32.54 23.6 6.69-2.77 13.53-5.21 20.4-7.52 3.7-1.33 7.7-1.62 11.28-3.3 22.72-9.36 45.33-18.96 68.1-28.19 2.9-1.33 6.17-2 8.65-4.11 2.31-1.83 4.97-3.2 7.77-4.14 14.32-3.71 28.24-9.06 41.53-15.57 7.29-4.54 15.56-7.02 23.55-9.98 9.37-3.41 18.85-6.59 27.84-10.93 2.18-1.23 4.83-2.24 6.01-4.62-4.04-2.86-9.3-3.52-14.02-2.23-.21-.38-.62-1.12-.83-1.49zM229.1 337.58c5.87-11.97 12.15-23.8 19.39-35 71.71 54.59 143.72 108.81 215.48 163.34-33.78-18.11-67.28-36.76-100.95-55.08-44.65-24.41-89.25-48.89-133.92-73.26zm-3.51 7.31c.87-1.82 1.56-3.76 2.86-5.34 36.51 21.23 73.34 41.93 109.97 62.95 38.25 21.84 76.51 43.68 114.76 65.51 2.6 1.51 5.28 2.89 7.76 4.61-82.96-31.74-165.9-63.53-248.85-95.31 4.06-10.98 8.55-21.81 13.5-32.42zm-14.4 34.69c78.32 30.79 156.51 61.89 234.79 92.8 4.65 1.77 9.2 3.83 13.96 5.33-11.09-1.8-21.96-4.84-32.96-7.12-75.95-17.07-151.87-34.22-227.83-51.25 3.23-13.47 7.49-26.68 12.04-39.76zm-12.58 42c68.75 16.61 137.52 33.1 206.28 49.67 17.39 4.03 34.66 8.64 52.13 12.3-1.33.21-2.69.24-4.02.12-87.18-8.56-174.34-17.36-261.54-25.81 1.65-12.22 4.17-24.32 7.15-36.28zm-11.65 79.62c.85-13.73 1.65-27.61 4.35-41.09 75.18 8.9 150.45 17.2 225.67 25.87 14.04 1.44 28.03 3.55 42.11 4.52-3.32.84-6.76.66-10.15.84-87.32 3.29-174.65 6.56-261.98 9.86zm-.16 2.45c90.68-2.26 181.39-4.25 272.09-6.27-90.6 15.12-181.29 29.77-271.93 44.69-.63-12.8-.66-25.62-.16-38.42zm.37 40.81c91.31-13.58 182.56-27.62 273.89-41.12-89.86 27.78-179.74 55.48-269.6 83.25-2.12-13.96-3.69-28.02-4.29-42.13zm4.67 44.4c90.31-26.89 180.7-53.53 270.98-80.55-30.42 14.55-61.17 28.45-91.71 42.76-56.01 26.01-112.03 52-168.02 78.03-.86.36-1.75.68-2.65.94-3.4-13.61-6.45-27.32-8.6-41.18zm233.91-58.11c12.42-5.53 24.71-11.38 37.21-16.7-65.72 41.95-131.78 83.43-197.64 125.2-17.17 10.82-34.27 21.76-51.48 32.51-4.87-12.83-8.94-25.94-12.72-39.13 32.74-15.24 65.78-29.85 98.64-44.84 42-19.02 83.99-38.03 125.99-57.04zM214.66 673.88c83.38-51.91 166.96-103.49 250.29-155.47-12.1 10.43-24.77 20.2-37.09 30.38L236.37 704.31c-2.01 1.61-4.03 3.21-5.94 4.95-6.31-11.24-10.93-23.43-15.77-35.38zm16.45 37.26c79.65-62.86 159.2-125.85 238.79-188.77-71.49 77.01-143.37 153.68-215.03 230.55-8.72-13.45-16.74-27.37-23.76-41.78zm372.28-155.11c-1.24-5.28-2.77-10.55-3.04-16 2.72 9.38 5.87 18.72 10.37 27.41 2.96 5.88 9.27 9.43 11.57 15.66 1.52 3.32-2.52 6.48-.87 9.61 2.71 2.03 6.39 1.34 9.55 1.25 26.93-2.3 54.14-3.28 81.03.01 16.82 2.31 34.18 5.83 48.48 15.48 10.96 8.23 21.55 17.39 29.24 28.85 2.59 4.08 5.23 8.62 4.9 13.63-.36-4.3-2.86-7.96-5.32-11.35-5.93-7.78-13.62-13.96-21.35-19.85-6.22-4.57-12.52-9.22-19.82-11.92-15.02-5.74-31.13-7.85-47.07-9.08-23.28-1.67-46.64-.95-69.92.2-4.29.18-9.05.17-12.63-2.53-2.82-2.06-3.57-6.09-2.22-9.2.53-1.7 2.14-3.52.75-5.24-1.76-3.11-4.32-5.65-6.35-8.56-4.06-5.33-5.54-12.04-7.3-18.37z"></path>
      <path d="M778.74 647c.53-2.4 3.57-2.45 5.09-.97 8.65 5.96 10.54 17.2 17.41 24.64 4.22 4.62 10.91 5.65 16.85 4.91 24.11-3.11 48.37-7.89 72.78-5.77 8.95.99 18.91 2.96 25.03 10.18 5.74 7.82 8.97 17.33 9.86 26.96.46 4.37-.03 8.79.7 13.15 1.37 8.96 6.3 17.39 13.69 22.7 12.91 9.63 27.37 16.84 41.29 24.86 16.81 9.56 33.65 19.66 47.39 33.46 10.69 10.73 18.94 24.66 20.24 40-.08 2.56-4.04 3.29-4.99.9-.78-4.03-1.27-8.15-2.68-12.03-4.71-14.18-15.17-25.56-26.61-34.77-22.64-18.38-49.83-29.76-73.75-46.21-8.31-5.33-15.03-13.33-17.67-22.96-2.5-7.46-.93-15.42-2.37-23.04-1.19-7.15-3.87-14.07-7.98-20.05-3.73-4.86-9.9-6.89-15.65-8.17-11.34-2.23-22.98-1.83-34.44-1.04-14.36 1.06-28.59 3.31-42.85 5.2-6.73.93-14.3.32-19.65-4.3-8.48-6.86-9.45-19.68-18.68-25.74.05 5.71.27 11.47-.64 17.14-2.01 13.73-10.84 26.33-23.12 32.81-6.86 3.63-15.07 2.27-21.76-1.04-9.29-4.12-16.81-12.16-27.14-13.8-7.58-.99-13.3 5.36-17.21 10.99-11.06 16.74-15.66 36.6-20.1 55.89-1.74 8.27-2.85 17.01-7.67 24.2-5 8.15-13.84 13.32-23.1 15.06-13.65 2.61-27.64.11-40.88-3.4-8.68-2.3-17.61-6.42-22.36-14.44-6.49-11.11-4.16-24.87-9.79-36.29-3.33-6.86-8.66-13.62-16.47-15.37-10.74-2.39-21.6 1.27-31.55 5.08-21.09 8.62-40.44 20.77-60.11 32.12-12.16 6.89-23.98 15.17-37.81 18.34-9.45 1.54-19.83 1.63-28.5-2.96-8.28-5.24-12.31-14.93-13.7-24.28-1.42-6.15.69-12.95-2.76-18.6-1.22-3.48-4.58-5.46-7.74-6.96 1.59-.33 2.83.35 3.64 1.72 5.2 2.31 6.52 8.74 6.81 13.89-.61 11.05 3.72 22.75 12.6 29.65 7.34 5.63 17.24 6.52 26.05 4.64 14.95-3.01 27.74-11.7 40.69-19.26 19.57-11.46 38.84-23.67 59.82-32.47 10.09-3.99 21.05-7.74 32.03-5.71 9.62 1.76 16.17 10.36 19.36 19.07 4.36 11.2 2.76 24.15 9.09 34.65 5.17 8.16 14.77 11.67 23.73 13.82 12.9 3.13 26.61 5.26 39.7 1.97 8.19-2.02 15.72-7.14 19.93-14.54 5-8.1 5.4-17.84 7.68-26.85 4.08-17.12 8.94-34.44 18.14-49.6 4.19-6.53 10.01-13.6 18.37-14.05 9.36.11 17.06 6.18 24.57 11.03 6.37 4.28 14.14 8.54 22.03 6.05 7.53-2.56 13.44-8.51 17.9-14.91 4.66-6.9 6.89-15.21 7.07-23.49.28-4-.44-8.04.19-12.01zm229.74 214.49c12.87-7.53 29.6-11.27 43.55-4.52 4.54 7.59 8.37 15.62 12.45 23.48 6.55 13.47 13.41 26.94 17.77 41.33.69 3.29 2.19 7.39-.2 10.31-3.81 2.44-8.24 3.68-12.43 5.28-22.24 7.62-45.24 12.98-68.54 16.06-7.64 1.27-15.49 1.03-23.06 2.57h-19.29c-.08-.29-.25-.86-.33-1.15 1.08.59 2.26.8 3.54.63 19.79-1.03 39.59-2.94 58.96-7.32 20.06-4.52 40.04-10.06 58.83-18.52.06-6.14-2.7-11.8-4.83-17.41-7.64-17.82-16.71-34.99-26.19-51.87a38.08 38.08 0 0 0-19.8-1.29c-14.17 2.71-26.15 11.74-35.96 21.92-10.73 11.11-24.13 20.43-39.59 23.22-14.18 2.69-28.74-.05-42.26-4.52-18.08-6.01-35.24-14.45-53.27-20.59-23.17-8.21-48.69-11.64-72.77-5.43-32.97 8.06-60.09 29.53-90.17 44.14-21.23 10.66-44.88 18.39-68.92 16.08-19.98-1.71-38.91-9.17-56.67-18.1-13.89-6.92-28.71-12.16-44.11-14.39-17.02-2.75-34.44-.99-51.11 2.99-10.78 3.66-21.32 8.01-32.12 11.61-30.34 10.33-61.81 18.4-93.96 19.78-20.66 1.12-41.51-4.15-59.43-14.42-15.28-8.64-28.56-20.72-39.54-34.25 7.37 7.93 15 15.73 23.75 22.19 18.38 14.09 40.94 23.1 64.21 23.77 16.46.19 32.82-2.36 48.91-5.65 28.29-5.77 55.53-15.62 82.29-26.28 6.94-2.91 14.48-3.7 21.81-5.08 21.79-3.5 44.4-.78 65.02 6.93 12.62 4.56 24.22 11.46 36.79 16.14 16.23 6.29 33.79 10.08 51.25 8.32 19.89-1.86 38.49-10.04 55.96-19.29 20-10.61 38.75-23.56 59.53-32.67 18.61-8.26 39.05-12.89 59.47-11.52 21.45 1.19 41.95 8.39 61.62 16.58 15.25 6.18 30.29 13.27 46.43 16.83 11.02 2.46 22.74 2.65 33.53-.99 11.25-3.78 20.97-11.09 29.31-19.39 5.91-5.88 12.32-11.35 19.57-15.51z"></path>
    </g>
  </symbol>
  <symbol xmlns="http://www.w3.org/2000/svg" viewBox="0 0 15 15" id="instagram">
    <path d="M7.5 1.4h3c2 .1 3 1.1 3.1 3.1v6c-.1 2-1 3-3.1 3.1h-6c-2-.1-3-1.1-3.1-3.1v-6c.1-2 1-3 3.1-3.1h3zm0-1.4H4.4C1.7.2.2 1.7 0 4.4v6.2c.1 2.7 1.6 4.2 4.4 4.4h6.2c2.7-.1 4.2-1.6 4.4-4.4V4.4C14.9 1.7 13.4.2 10.6 0H7.5zm0 3.6c-2.1 0-3.9 1.7-3.9 3.9s1.7 3.9 3.9 3.9 3.9-1.7 3.9-3.9c0-2.1-1.8-3.9-3.9-3.9zm0 6.4C6.1 10 5 8.9 5 7.5S6.1 5 7.5 5 10 6.1 10 7.5 8.9 10 7.5 10z"></path>
  </symbol>
  <symbol xmlns="http://www.w3.org/2000/svg" viewBox="0 0 7 15.2" id="facebook">
    <path d="M3.6.1c-.8.2-1.5.9-1.8 1.7-.4 1-.2 2.1-.3 3.2H0v2.7h1.5v7.6h3.1V7.7h2.1c.1-1 .2-1.9.3-2.8H4.7V3.2c0-.3.2-.6.5-.6H7V0H5c-.5 0-.9 0-1.4.1z"></path>
  </symbol>
  <symbol xmlns="http://www.w3.org/2000/svg" viewBox="0 0 14 8.2" id="vk">
    <path d="M7.7 8.2c.4 0 .5-.2.5-.5 0-1.1.4-1.7 1.2-.9.9.9 1 1.5 2.1 1.5h1.9c.4-.1.6-.3.6-.5 0-.5-.8-1.4-1.5-2-1-.9-1-.9-.2-2C13.4 2.4 14.7.7 13.5.7h-2.3c-.5 0-.5.3-.6.6-.7 1.3-1.8 3.1-2.2 2.8-.4-.3-.2-1.4-.2-3.1 0-.4 0-.7-.7-.9-.3-.1-.7-.1-1-.1-1.3 0-2.2.6-1.7.7.9.2.8 2.2.6 3C5 5.2 3.6 2.5 3 1.2 2.9.8 2.9.6 2.4.6H.5C.2.6 0 .7 0 .9c0 .4 1.7 3.9 3.4 5.7C5 8.3 6.6 8.2 7.7 8.2z"></path>
  </symbol>
  <symbol xmlns="http://www.w3.org/2000/svg" viewBox="0 0 132187 131889" id="phone">
    <path d="M129223 104317l-20415-20417c-4065-4049-10799-3926-15008 283L83515 94466c-649-359-1322-733-2030-1130-6495-3598-15383-8530-24738-17892-9381-9380-14317-18283-17928-24781-380-689-745-1353-1106-1983l6903-6892 3394-3397c4214-4215 4329-10947 273-15009L27870 2964c-4057-4055-10793-3933-15008 283L7109 9033l157 157c-1929 2461-3541 5300-4741 8362-1106 2914-1795 5695-2109 8482-2696 22347 7516 42769 35229 70483 38309 38306 69180 35412 70512 35272 2900-348 5681-1040 8505-2138 3035-1185 5873-2794 8332-4721l126 112 5829-5707c4205-4215 4326-10949 272-15016z"></path>
  </symbol>
  <symbol xmlns="http://www.w3.org/2000/svg" viewBox="0 0 32.6 40" id="pdf-file">
    <path d="M8.1 25.7c0-.7-.5-1.1-1.3-1.1-.3 0-.6 0-.7.1v2.1h.5c.9.1 1.5-.3 1.5-1.1zm5-1c-.4 0-.6 0-.7.1v4.7h.6c1.5 0 2.4-.8 2.4-2.5 0-1.5-.9-2.3-2.3-2.3z"></path>
    <path d="M22.5 0H6.4C4 0 2.1 1.9 2.1 4.3V20h-.4c-.9 0-1.7.8-1.7 1.7v10.4c0 .9.8 1.7 1.7 1.7h.4v1.9C2.1 38.1 4 40 6.4 40h21.9c2.3 0 4.3-1.9 4.3-4.3V10.1L22.5 0zm-18 23.6c.5-.1 1.2-.1 2.2-.1 1 0 1.7.2 2.2.6.5.4.8 1 .8 1.7S9.5 27 9 27.4c-.6.5-1.4.8-2.3.8h-.6v2.6H4.5v-7.2zm23.8 13.8H6.4c-.9 0-1.7-.7-1.7-1.7v-1.9h20.4c.9 0 1.7-.8 1.7-1.7V21.7c0-.9-.8-1.7-1.7-1.7H4.7V4.3c0-.9.7-1.7 1.7-1.7h15.1v5.6c0 1.6 1.3 3 3 3H30v24.5c0 1-.8 1.7-1.7 1.7zm-17.6-6.7v-7.1c.6-.1 1.4-.1 2.2-.1 1.4 0 2.3.2 3 .8.7.6 1.2 1.4 1.2 2.7 0 1.4-.5 2.3-1.2 2.9-.8.6-1.9.9-3.3.9-.9 0-1.5-.1-1.9-.1zm11.7-4.2v1.3h-2.6v2.9h-1.6v-7.2h4.4v1.3h-2.8v1.7h2.6z"></path>
  </symbol>
  <symbol xmlns="http://www.w3.org/2000/svg" viewBox="0 0 53 22" id="arrow-long-left">
    <path d="M11.4 0h.2c.3.1.7.3.8.6.2.4.1.9-.2 1.2C9.4 4.5 6.6 7.2 3.8 10h47.3c.4 0 .8-.1 1.2.1v1.7c-.3.3-.7.2-1.1.2H3.8l8.3 8.3c.3.3.4.7.3 1.1-.1.3-.4.6-.8.6h-.2c-.2 0-.5-.1-.6-.3C7.2 18.1 3.6 14.6 0 11 3.6 7.4 7.2 3.9 10.7.3c.2-.1.4-.2.7-.3z"></path>
  </symbol>
  <symbol xmlns="http://www.w3.org/2000/svg" viewBox="0 0 53 22" id="arrow-long-right">
    <path d="M40.9 22h-.2c-.4 0-.7-.3-.8-.6-.2-.4-.1-.9.2-1.2l8.3-8.3C32.7 12 17 12 1.2 12c-.4 0-.8 0-1.2-.1v-1.7c.3-.3.7-.2 1.1-.2h47.4l-8.3-8.3c-.3-.3-.4-.7-.3-1.1.1-.3.4-.6.8-.6h.2c.2 0 .5.2.6.3 3.6 3.6 7.2 7.1 10.8 10.7-3.6 3.6-7.2 7.1-10.7 10.7-.2.1-.4.3-.7.3z"></path>
  </symbol>
  <symbol xmlns="http://www.w3.org/2000/svg" viewBox="0 0 30 22" id="arrow-short-left">
    <path d="M11.5 0h.2c.8.1 1.2 1.1.7 1.7-2.8 2.8-5.6 5.6-8.5 8.4H30v2H3.9c2.8 2.8 5.6 5.6 8.5 8.4.5.6.1 1.6-.7 1.7h-.2c-.3 0-.5-.1-.7-.3C7.2 18.2 3.6 14.7 0 11.1L10.8.3c.2-.1.4-.3.7-.3z"></path>
  </symbol>
  <symbol xmlns="http://www.w3.org/2000/svg" viewBox="0 0 30 22.14" id="arrow-short-right">
    <title>arrow-short-right</title>
    <path d="M18.54 22.14h-.22a1 1 0 0 1-.66-1.65c2.82-2.82 5.65-5.61 8.47-8.41H0v-2h26.13c-2.82-2.8-5.65-5.59-8.46-8.4A1 1 0 0 1 18.35 0h.17a1.1 1.1 0 0 1 .66.33L30 11.07 19.19 21.8a1.12 1.12 0 0 1-.65.34z"></path>
  </symbol>
  <symbol xmlns="http://www.w3.org/2000/svg" viewBox="0 0 138.5 177.74" id="play">
    <path d="M131.11 102.92L26.73 174.73A17.05 17.05 0 0 1 0 160.68V17.06A17.05 17.05 0 0 1 26.73 3l104.38 71.82a17.05 17.05 0 0 1 0 28.1z"></path>
  </symbol>
</svg>